<?xml version="1.0" encoding="utf-8"?>
<!-- Generated by IcoMoon.io -->
<!DOCTYPE svg PUBLIC "-//W3C//DTD SVG 1.1//EN" "http://www.w3.org/Graphics/SVG/1.1/DTD/svg11.dtd">
<svg version="1.1" xmlns="http://www.w3.org/2000/svg" xmlns:xlink="http://www.w3.org/1999/xlink" width="48" height="48" viewBox="0 0 48 48">
<path d="M24 31.031c3.844 0 7.031-3.188 7.031-7.031s-3.188-7.031-7.031-7.031-7.031 3.188-7.031 7.031 3.188 7.031 7.031 7.031zM38.906 25.969l4.219 3.281c0.375 0.281 0.469 0.844 0.188 1.313l-4.031 6.938c-0.281 0.469-0.75 0.563-1.219 0.375l-4.969-1.969c-1.031 0.75-2.156 1.5-3.375 1.969l-0.75 5.25c-0.094 0.469-0.469 0.844-0.938 0.844h-8.063c-0.469 0-0.844-0.375-0.938-0.844l-0.75-5.25c-1.219-0.469-2.344-1.125-3.375-1.969l-4.969 1.969c-0.469 0.188-0.938 0.094-1.219-0.375l-4.031-6.938c-0.281-0.469-0.188-1.031 0.188-1.313l4.219-3.281c-0.094-0.656-0.094-1.313-0.094-1.969s0-1.313 0.094-1.969l-4.219-3.281c-0.375-0.281-0.469-0.844-0.188-1.313l4.031-6.938c0.281-0.469 0.75-0.563 1.219-0.375l4.969 1.969c1.031-0.75 2.156-1.5 3.375-1.969l0.75-5.25c0.094-0.469 0.469-0.844 0.938-0.844h8.063c0.469 0 0.844 0.375 0.938 0.844l0.75 5.25c1.219 0.469 2.344 1.125 3.375 1.969l4.969-1.969c0.469-0.188 0.938-0.094 1.219 0.375l4.031 6.938c0.281 0.469 0.188 1.031-0.188 1.313l-4.219 3.281c0.094 0.656 0.094 1.313 0.094 1.969s0 1.313-0.094 1.969z"></path>
</svg>
