<?xml version="1.0" encoding="utf-8"?>
<!-- Generated by IcoMoon.io -->
<!DOCTYPE svg PUBLIC "-//W3C//DTD SVG 1.1//EN" "http://www.w3.org/Graphics/SVG/1.1/DTD/svg11.dtd">
<svg version="1.1" xmlns="http://www.w3.org/2000/svg" xmlns:xlink="http://www.w3.org/1999/xlink" width="48" height="48" viewBox="0 0 48 48">
<path d="M34.031 31.969v-3.938h12v3.938c0 2.625-1.688 4.781-4.031 5.625v8.438h-4.031v-8.438c-2.344-0.844-3.938-3-3.938-5.625zM25.969 4.031v7.969h4.031v12h-12v-12h4.031v-7.969c0-1.125 0.844-2.063 1.969-2.063s1.969 0.938 1.969 2.063zM42 12h4.031v12h-12v-12h3.938v-7.969c0-1.125 0.938-2.063 2.063-2.063s1.969 0.938 1.969 2.063v7.969zM1.969 31.969v-3.938h12v3.938c0 2.625-1.594 4.781-3.938 5.625v8.438h-4.031v-8.438c-2.344-0.844-4.031-3-4.031-5.625zM18 31.969v-3.938h12v3.938c0 2.625-1.688 4.781-4.031 5.625v8.438h-3.938v-8.438c-2.344-0.844-4.031-3-4.031-5.625zM10.031 4.031v7.969h3.938v12h-12v-12h4.031v-7.969c0-1.125 0.844-2.063 1.969-2.063s2.063 0.938 2.063 2.063z"></path>
</svg>
