<svg xmlns="http://www.w3.org/2000/svg" xmlns:xlink="http://www.w3.org/1999/xlink" width="597" height="197"><rect id="backgroundrect" width="100%" height="100%" x="0" y="0" fill="none" stroke="none"/>
    <g transform="translate(-96.146 -485.097)"  stroke="#4fd6cb" fill="none">
        <path d="M511.482 492.87v159.604l90.712-159.464z"  />
        <path d="M590.703 522.98l16-29.564h76.566l-33.485 57.994-58.624 101.54z"  />
        <path d="M383.643 644.29l87.6-151.727H395.07l-11.116 19.256z"  />
        <path d="M476.5 620.352l-27.972 48.45h28.686z"  />
        <path d="M249.643 644.29l87.6-151.727h-87.6z"  />
        <path d="M250 653.22l52.28-90.554 48.023 89.91z"  />
        <path d="M140.36 601.368l-34.84-60.34 27.974-48.45h68.76z"  stroke-width="1.013" />
        <path d="M384.357 653.22l92.26-159.798v103.012L443.783 653.3z"  />
        <path d="M178.854 543.765l34.838 60.34-27.973 48.45h-68.76z"  stroke-width="1.013" />
    </g>
</svg>
